<?xml version="1.0" encoding="UTF-8"?>
<svg id="Livello_2" data-name="Livello 2" xmlns="http://www.w3.org/2000/svg" viewBox="0 0 381.42 302.15">
  <defs>
    <style>
      .cls-1 {
        fill: #222831;
      }
    </style>
  </defs>
  <g id="Livello_1-2" data-name="Livello 1">
    <g id="SvgjsG1213">
      <path class="cls-1" d="m114.43,0h152.56s0,5.88,0,5.88h-58.09v211.81h-36.38V5.88h-58.09V0h0Zm88.6,211.81V5.88h-24.64v205.93h24.64Z"/>
    </g>
    <g id="SvgjsG1214">
      <path class="cls-1" d="m44.27,242.84c.76,0,1.27.51,1.27,1.27v2.46c0,.76-.51,1.27-1.27,1.27h-18.85v53.04c0,.76-.51,1.27-1.27,1.27h-2.75c-.76,0-1.27-.51-1.27-1.27v-53.04H1.27c-.76,0-1.27-.51-1.27-1.27v-2.46c0-.76.51-1.27,1.27-1.27h43Zm61.07,5h-16.95v49.31h16.95c.76,0,1.27.51,1.27,1.27v2.46c0,.76-.51,1.27-1.27,1.27h-39.19c-.76,0-1.27-.51-1.27-1.27v-2.46c0-.76.51-1.27,1.27-1.27h16.95v-49.31h-16.95c-.76,0-1.27-.51-1.27-1.27v-2.46c0-.76.51-1.27,1.27-1.27h39.19c.76,0,1.27.51,1.27,1.27v2.46c0,.76-.51,1.27-1.27,1.27Zm81.49-5c.76,0,1.27.51,1.27,1.27v56.77c0,.76-.51,1.27-1.27,1.27h-2.75c-.76,0-1.27-.51-1.27-1.27v-49.19l-21.35,49.52c-.25.68-.72.93-1.4.93h-3.09c-.68,0-1.14-.25-1.4-.93l-21.14-49.06v48.72c0,.76-.51,1.27-1.27,1.27h-2.75c-.76,0-1.27-.51-1.27-1.27v-56.77c0-.76.51-1.27,1.27-1.27h4.11c.68,0,1.27.25,1.53.85l22.54,52.66,22.41-52.66c.25-.59.85-.85,1.53-.85h4.32Zm52.85,27.11c8.64,2.12,12.03,8.64,12.03,15.12,0,11.86-6.91,17.07-20.76,17.07h-19.06c-.76,0-1.27-.51-1.27-1.27v-56.77c0-.76.51-1.27,1.27-1.27h19.49c13.68,0,17.41,7.37,17.41,13.9,0,5.97-2.54,11.1-9.11,13.22h0Zm3.81-13.05c0-6.19-4.19-9.07-12.58-9.07h-15v20.08h15.51c7.88,0,12.07-4.32,12.07-11.01h0Zm-12.96,40.25c10.25,0,15.67-2.8,15.67-11.99,0-6.86-4.32-12.5-15.12-12.5h-15.17v24.49h14.62Zm70.85-18.94l11.86,22.45c.47.89.04,1.48-.93,1.48h-3.13c-.68,0-1.14-.3-1.48-.93l-11.78-22.41h-18.3v22.07c0,.76-.51,1.27-1.27,1.27h-2.75c-.76,0-1.27-.51-1.27-1.27v-56.77c0-.76.51-1.27,1.27-1.27h21.1c14.19,0,20,6.61,20,17.96,0,9.4-3.94,15.55-13.3,17.41h0Zm-23.77-4.41h17.37c8.43,0,14.49-2.46,14.49-13.01s-6.06-12.96-14.49-12.96h-17.37s0,25.97,0,25.97Zm103.69,26.9c.34.85-.08,1.44-1.02,1.44h-2.67c-.68,0-1.14-.25-1.44-1.02l-4.87-12.84h-29.91l-4.87,12.84c-.3.76-.76,1.02-1.44,1.02h-2.67c-.93,0-1.36-.59-1.02-1.44l21.86-56.85c.25-.68.89-1.02,1.57-1.02h3.13c.68,0,1.23.34,1.48,1.02l21.86,56.85Zm-38-17.33h26.1l-13.05-34.32-13.05,34.32Z"/>
    </g>
  </g>
</svg>